<!DOCTYPE svg PUBLIC "-//W3C//DTD SVG 1.1//EN" "http://www.w3.org/Graphics/SVG/1.1/DTD/svg11.dtd">
<!-- Uploaded to: SVG Repo, www.svgrepo.com, Transformed by: SVG Repo Mixer Tools -->
<svg fill="#494949" height="800px" width="800px" version="1.1" id="Layer_1" xmlns="http://www.w3.org/2000/svg" xmlns:xlink="http://www.w3.org/1999/xlink" viewBox="0 0 488 488" xml:space="preserve" stroke="#494949" stroke-width="13.664000000000001">
<g id="SVGRepo_bgCarrier" stroke-width="0"/>
<g id="SVGRepo_tracerCarrier" stroke-linecap="round" stroke-linejoin="round"/>
<g id="SVGRepo_iconCarrier"> <g> <g> <path d="M485.814,176.9L485.814,176.9l-132.6-173c-1.9-2.5-4.8-3.9-7.9-3.9h-202.7c-3.1,0-6,1.4-7.9,3.9l-132.6,173 c-2.9,3.7-2.7,9,0.3,12.6l168.1,197.7l-16.3,24.2c-2.3,3.4-2.3,7.8,0,11.2l41.2,61c1.9,2.8,5,4.4,8.3,4.4h80.8 c3.3,0,6.4-1.7,8.3-4.4l41.2-61c2.3-3.4,2.3-7.8,0-11.2l-16.3-24.2l168.1-197.7C488.614,185.9,488.714,180.7,485.814,176.9z M340.314,20.1l103.3,134.6l-22.2-11.1c-3.1-1.5-6.7-1.4-9.6,0.4l-46.4,27.7l-52.8-26.4l-53.6-125.2H340.314z M352.714,187.6 l-75.1,158.4h-23.7V189.2l51-25.5L352.714,187.6z M292.014,147.8l-48.1,24h0l-48.1-24l48.1-112.4L292.014,147.8z M234.014,189.1 V346h-23.8l-75-158.5l47.8-23.9L234.014,189.1z M147.514,20h81.3l-53.6,125.2l-52.8,26.4l-46.4-27.7c-2.9-1.7-6.5-1.9-9.6-0.4 l-22.2,11.1L147.514,20z M25.814,186.3l44.7-22.3l43.8,26.1l78,164.8l-10.2,15.2L25.814,186.3z M279.014,468L279.014,468l-70.2,0 l-34.4-51l34.4-51h70.2l34.4,51L279.014,468z M305.814,370l-10.2-15.1l78-164.8l43.8-26.1l44.7,22.3L305.814,370z"/> </g> </g> </g>
</svg>