<!DOCTYPE svg PUBLIC "-//W3C//DTD SVG 1.1//EN" "http://www.w3.org/Graphics/SVG/1.1/DTD/svg11.dtd">
<!-- Uploaded to: SVG Repo, www.svgrepo.com, Transformed by: SVG Repo Mixer Tools -->
<svg fill="#494949" height="800px" width="800px" version="1.1" id="Layer_1" xmlns="http://www.w3.org/2000/svg" xmlns:xlink="http://www.w3.org/1999/xlink" viewBox="0 0 512 512" xml:space="preserve" stroke="#494949" stroke-width="3.5840000000000005">
<g id="SVGRepo_bgCarrier" stroke-width="0"/>
<g id="SVGRepo_tracerCarrier" stroke-linecap="round" stroke-linejoin="round"/>
<g id="SVGRepo_iconCarrier"> <g> <g> <path d="M488.282,71.424c-73.859-31.376-152.008-47.285-232.278-47.285S97.582,40.049,23.726,71.424 c-20.298,8.62-29.417,32.443-20.018,52.412l27.03,57.442c7.976,16.949,27.392,26.212,46.025,20.804 c0.649,1.18,92.078,167.358,146.625,266.474c14.17,25.749,51.169,25.734,65.33-0.019l146.519-266.456 c18.661,5.423,38.061-3.866,46.031-20.803l27.031-57.443C517.682,103.898,508.579,80.045,488.282,71.424z M110.348,189.474 c8.43-2.868,16.927-5.472,25.478-7.831l43.983,134.19L110.348,189.474z M256,434.294l-85.46-260.736 c56.275-10.805,114.644-10.805,170.92-0.001L256,434.294z M332.192,315.833l43.983-134.193c8.551,2.358,17.047,4.962,25.478,7.83 L332.192,315.833z M476.171,108.718l-27.031,57.443c-0.798,1.697-2.738,2.389-4.416,1.686 c-59.997-25.141-123.604-37.936-188.723-37.936c-64.896,0-128.547,12.72-188.723,37.936c-1.731,0.726-3.659-0.079-4.416-1.686 l-27.03-57.443c-0.822-1.746-0.038-3.846,1.773-4.615c69.443-29.499,142.922-44.458,218.396-44.458s148.953,14.957,218.397,44.458 C476.207,104.871,476.98,107.001,476.171,108.718z"/> </g> </g> </g>
</svg>